# xmcd
#
# Track frame offsets:
#	150
#	19282
#	48979
#	63247
#	81614
#	104846
#	117269
#	152941
#	193763
#
# Disc length: 2995 seconds
# Revision: 0
# Processed by: cddbd v1.5.2PL0 Copyright (c) Steve Scherf et al.
# Submitted via: dBpowerAMP V12.0
#
DISCID=810bb109
DTITLE=Savoy Brown - Blue Matter
DYEAR=1969
DGENRE=Bluesrock
TTITLE0=Train to Nowhere
TTITLE1=Tolling Bells
TTITLE2=She's Got a Ring in His Nose and a Ring on Her Hand
TTITLE3=Vicksburg Blues
TTITLE4=Don't Turn Me From Your Door
TTITLE5=Grits Ain't Groceries (All Around the World)
TTITLE6=May Be Wrong
TTITLE7=Louisiana Blues
TTITLE8=It Hurts Me Too
EXTD=
EXTT0=
EXTT1=
EXTT2=
EXTT3=
EXTT4=
EXTT5=
EXTT6=
EXTT7=
EXTT8=
PLAYORDER=
